<svg width="24" height="25" viewBox="0 0 24 25" fill="none" xmlns="http://www.w3.org/2000/svg">
<g id="Iconly/Bold/Time Circle">
<g id="Time Circle">
<path id="Time Circle_2" fill-rule="evenodd" clip-rule="evenodd" d="M12 22.9323C6.48 22.9323 2 18.4623 2 12.9323C2 7.41225 6.48 2.93225 12 2.93225C17.53 2.93225 22 7.41225 22 12.9323C22 18.4623 17.53 22.9323 12 22.9323ZM15.19 16.6423C15.31 16.7123 15.44 16.7523 15.58 16.7523C15.83 16.7523 16.08 16.6223 16.22 16.3823C16.43 16.0323 16.32 15.5723 15.96 15.3523L12.4 13.2323V8.61225C12.4 8.19225 12.06 7.86225 11.65 7.86225C11.24 7.86225 10.9 8.19225 10.9 8.61225V13.6623C10.9 13.9223 11.04 14.1623 11.27 14.3023L15.19 16.6423Z" fill="white"/>
</g>
</g>
</svg>
