<svg width="24" height="25" viewBox="0 0 24 25" fill="none" xmlns="http://www.w3.org/2000/svg">
<g id="Iconly/Light/Home">
<g id="Home">
<path id="Home_2" d="M8.80684 21.7035V18.6368C8.80682 17.8568 9.40927 17.223 10.1557 17.2177H12.8899C13.6399 17.2177 14.2478 17.8531 14.2478 18.6368V18.6368V21.7131C14.2477 22.3753 14.7535 22.9166 15.3871 22.9321H17.2099C19.027 22.9321 20.5 21.3928 20.5 19.494V19.494V10.77C20.4903 10.023 20.1547 9.32148 19.5886 8.86516L13.3547 3.61743C12.2626 2.7037 10.7101 2.7037 9.61797 3.61743L3.41139 8.87469C2.84319 9.32915 2.507 10.0318 2.5 10.7795V19.494C2.5 21.3928 3.97304 22.9321 5.79013 22.9321H7.61291C8.26223 22.9321 8.78861 22.3821 8.78861 21.7035V21.7035" stroke="white" stroke-opacity="0.81" stroke-width="1.5" stroke-linecap="round" stroke-linejoin="round"/>
</g>
</g>
</svg>
