<svg width="15" height="16" viewBox="0 0 15 16" fill="none" xmlns="http://www.w3.org/2000/svg">
<g id="Huge-icon/business/solid/bar chart 2">
<path id="Rectangle 397" d="M7.5 2.375C8.19036 2.375 8.75 2.93464 8.75 3.625L8.75 12.375C8.75 13.0654 8.19036 13.625 7.5 13.625C6.80964 13.625 6.25 13.0654 6.25 12.375L6.25 3.625C6.25 2.93464 6.80964 2.375 7.5 2.375Z" fill="#E2BEFF"/>
<path id="Rectangle 398" d="M2.5 8C3.19036 8 3.75 8.55964 3.75 9.25L3.75 12.375C3.75 13.0654 3.19036 13.625 2.5 13.625C1.80964 13.625 1.25 13.0654 1.25 12.375L1.25 9.25C1.25 8.55964 1.80964 8 2.5 8Z" fill="#E2BEFF"/>
<path id="Rectangle 399" d="M12.5 5.5C13.1904 5.5 13.75 6.05964 13.75 6.75L13.75 12.375C13.75 13.0654 13.1904 13.625 12.5 13.625C11.8096 13.625 11.25 13.0654 11.25 12.375L11.25 6.75C11.25 6.05964 11.8096 5.5 12.5 5.5Z" fill="#7864E6"/>
</g>
</svg>
