<svg width="24" height="25" viewBox="0 0 24 25" fill="none" xmlns="http://www.w3.org/2000/svg">
<g id="Huge-icon">
<g id="notepad">
<path id="Combo shape" fill-rule="evenodd" clip-rule="evenodd" d="M10 2.93213H14C15.1046 2.93213 16 3.82756 16 4.93213C16 6.0367 15.1046 6.93213 14 6.93213H10C8.89543 6.93213 8 6.0367 8 4.93213C8 3.82756 8.89543 2.93213 10 2.93213ZM6.50733 4.9624C6.50247 5.03509 6.5 5.10844 6.5 5.18236C6.5 6.97729 7.95507 8.43236 9.75 8.43236H14.25C16.0449 8.43236 17.5 6.97729 17.5 5.18236C17.5 5.10844 17.4975 5.0351 17.4927 4.96241C19.4694 5.2052 21 6.89003 21 8.93236V18.9324C21 21.1415 19.2091 22.9324 17 22.9324H7C4.79086 22.9324 3 21.1415 3 18.9324V8.93236C3 6.89003 4.53062 5.20519 6.50733 4.9624ZM7.25 10.9324C7.25 10.5182 7.58579 10.1824 8 10.1824H16C16.4142 10.1824 16.75 10.5182 16.75 10.9324C16.75 11.3466 16.4142 11.6824 16 11.6824H8C7.58579 11.6824 7.25 11.3466 7.25 10.9324ZM8 14.1824C7.58579 14.1824 7.25 14.5182 7.25 14.9324C7.25 15.3466 7.58579 15.6824 8 15.6824H16C16.4142 15.6824 16.75 15.3466 16.75 14.9324C16.75 14.5182 16.4142 14.1824 16 14.1824H8ZM7.25 18.9324C7.25 18.5182 7.58579 18.1824 8 18.1824H12C12.4142 18.1824 12.75 18.5182 12.75 18.9324C12.75 19.3466 12.4142 19.6824 12 19.6824H8C7.58579 19.6824 7.25 19.3466 7.25 18.9324Z" fill="white"/>
</g>
</g>
</svg>
