<svg width="12" height="12" viewBox="0 0 12 12" fill="none" xmlns="http://www.w3.org/2000/svg">
<g id="Huge-Icon/ecommerce/solid/store">
<g id="store">
<path id="Combo shape" fill-rule="evenodd" clip-rule="evenodd" d="M3.81431 1.41663H8.18566C9.01861 1.41663 9.76765 1.98714 10.077 2.85719L10.4244 3.83427C10.5296 4.13005 10.6023 4.44655 10.5256 4.75094C10.3439 5.47185 9.75454 5.99996 9.05554 5.99996C8.21177 5.99996 7.52776 5.23045 7.52776 4.28121C7.52776 5.23045 6.84375 5.99996 5.99998 5.99996C5.15622 5.99996 4.47221 5.23045 4.47221 4.28121C4.47221 5.23045 3.7882 5.99996 2.94443 5.99996C2.24543 5.99996 1.65607 5.47185 1.47441 4.75094C1.39771 4.44655 1.4704 4.13005 1.57556 3.83427L1.92297 2.85719C2.23232 1.98714 2.98136 1.41663 3.81431 1.41663ZM2.33334 6.59601V8.74991C2.33334 9.76244 3.15415 10.5832 4.16667 10.5832H7.83333C8.84585 10.5832 9.66667 9.76244 9.66667 8.74991V6.59603C9.4747 6.65526 9.27012 6.68742 9.05559 6.68742C8.44274 6.68742 7.91456 6.42953 7.52781 6.02558C7.14106 6.42953 6.61288 6.68742 6.00003 6.68742C5.38718 6.68742 4.85901 6.42953 4.47226 6.02558C4.08551 6.42953 3.55733 6.68742 2.94448 6.68742C2.72992 6.68742 2.52532 6.65525 2.33334 6.59601ZM7.67438 8.12271C7.76762 8.28808 7.70914 8.49773 7.54377 8.59097C6.98682 8.90498 6.5071 9.09263 6.00125 9.09361C5.49478 9.09459 5.01412 8.9084 4.45498 8.59032C4.28996 8.49644 4.23229 8.28657 4.32616 8.12156C4.42004 7.95654 4.62991 7.89887 4.79492 7.99274C5.31568 8.28899 5.67092 8.40675 5.99992 8.40611C6.32955 8.40548 6.68488 8.28597 7.20612 7.99209C7.3715 7.89885 7.58115 7.95733 7.67438 8.12271Z" fill="white"/>
</g>
</g>
</svg>
