<svg width="30" height="31" viewBox="0 0 30 31" fill="none" xmlns="http://www.w3.org/2000/svg">
    <g clip-path="url(#clip0_4707_534)">
        <rect y="0.5" width="30" height="30" rx="15" fill="#A224DE"/>
        <rect y="2.72223" width="30" height="30" fill="#A224DE"/>
        <rect x="1.5" y="4.22223" width="27" height="27" fill="#A324DE"/>
        <mask id="mask0_4707_534" style="mask-type:luminance" maskUnits="userSpaceOnUse" x="1" y="4" width="28" height="28">
            <rect x="1.5" y="4.22223" width="27" height="27" fill="white"/>
        </mask>
        <g mask="url(#mask0_4707_534)">
            <path fill-rule="evenodd" clip-rule="evenodd" d="M24.8223 28.0899C24.0264 26.9385 22.853 26.1017 21.5053 25.7241L18.375 24.8472V22.5973C19.6983 21.6033 20.5673 20.039 20.6207 18.2695C20.8057 18.351 21.0098 18.3972 21.2251 18.3972C22.0534 18.3972 22.7251 17.7257 22.7251 16.8972C22.7251 16.0688 22.0534 15.3972 21.2251 15.3972C21.0115 15.3972 20.8089 15.4425 20.6251 15.5229V15.0972C20.6251 11.9906 18.1066 9.47223 15.0001 9.47223H15C11.8934 9.47223 9.37506 11.9906 9.37506 15.0972V15.5229C9.19116 15.4425 8.98851 15.3972 8.77506 15.3972C7.94661 15.3972 7.27506 16.0688 7.27506 16.8972C7.27506 17.7257 7.94661 18.3972 8.77506 18.3972C8.99024 18.3972 9.19439 18.3511 9.37941 18.2695C9.43274 20.039 10.3018 21.6033 11.625 22.5973V24.8472L8.49479 25.7241C7.14704 26.1017 5.97366 26.9385 5.17776 28.0899L3.00006 31.2402L3.00006 33.4722H27.0001V31.2402L24.8223 28.0899Z" fill="#EEFFA8"/>
            <path fill-rule="evenodd" clip-rule="evenodd" d="M15 23.7222C14.3064 23.7222 13.6425 23.5959 13.029 23.3663C13.9015 23.9237 14.9377 24.2472 16.05 24.2472C16.8795 24.2472 17.6662 24.0662 18.375 23.744V22.5973C17.4349 23.3035 16.2664 23.7222 15 23.7222Z" fill="#B99682"/>
            <path d="M9.5707 17.1161C9.58982 17.0464 9.6001 16.973 9.6001 16.8973C9.6001 16.4416 9.23072 16.0723 8.7751 16.0723C8.66117 16.0723 8.55265 16.0954 8.45395 16.1371" stroke="#1C1C1C" stroke-width="0.25" stroke-linecap="round" stroke-linejoin="round"/>
            <path d="M20.4294 17.1161C20.4103 17.0464 20.4001 16.973 20.4001 16.8973C20.4001 16.4416 20.7695 16.0723 21.2251 16.0723C21.3389 16.0723 21.4475 16.0954 21.5462 16.1371" stroke="#1C1C1C" stroke-width="0.25" stroke-linecap="round" stroke-linejoin="round"/>
            <path fill-rule="evenodd" clip-rule="evenodd" d="M16.5 20.2729C16.5 21.1013 15.8284 21.7729 15 21.7729C14.1715 21.7729 13.5 21.1013 13.5 20.2729H16.5Z" fill="#554444"/>
            <path d="M16.7625 17.1222C16.8782 16.8574 17.1425 16.6722 17.4501 16.6722C17.7577 16.6722 18.022 16.8574 18.1377 17.1222" stroke="#1C1C1C" stroke-width="0.25" stroke-linecap="round" stroke-linejoin="round"/>
            <path fill-rule="evenodd" clip-rule="evenodd" d="M13.125 17.1222C13.125 17.4536 12.8564 17.7222 12.525 17.7222C12.1937 17.7222 11.925 17.4536 11.925 17.1222C11.925 16.7909 12.1937 16.5222 12.525 16.5222C12.8564 16.5222 13.125 16.7909 13.125 17.1222Z" fill="#1C1C1C"/>
            <path d="M15 16.5222L15.75 19.0722L14.7 19.2222" stroke="#1C1C1C" stroke-width="0.25" stroke-linecap="round" stroke-linejoin="round"/>
            <path fill-rule="evenodd" clip-rule="evenodd" d="M13.2271 12.8052C12.4465 14.1388 11.265 15.2076 9.84898 15.8512C9.59871 15.5943 9.25708 15.4281 8.87661 15.4025L9.07363 14.1552V14.1551C9.19918 13.36 9.48111 12.6171 9.88648 11.958C10.2609 11.3496 10.7413 10.8141 11.3014 10.3752C11.5203 10.2036 11.7511 10.0464 11.9929 9.90597C12.6718 9.51192 13.4347 9.24687 14.2485 9.14472C14.4946 9.11382 14.7454 9.09717 15 9.09717C16.0961 9.09717 17.1228 9.39259 18.0071 9.90597C18.8676 10.4055 19.5928 11.1117 20.1135 11.958C20.5189 12.6171 20.8008 13.36 20.9263 14.1552L21.1231 15.401C20.7254 15.4279 20.371 15.6104 20.1181 15.8874C17.4529 15.6808 15.0481 14.5461 13.2271 12.8052ZM11.625 22.5953C10.303 21.6011 9.43268 20.0384 9.37935 18.2694C9.19433 18.351 8.99018 18.3971 8.775 18.3971C8.64915 18.3971 8.52772 18.38 8.41095 18.3508L7.5 24.1179H11.625V22.5953ZM21.225 18.3972C21.0098 18.3972 20.8056 18.3511 20.6206 18.2695C20.5673 20.0384 19.697 21.6011 18.375 22.5953V24.1179H22.5L21.5891 18.3508C21.4723 18.38 21.3509 18.3972 21.225 18.3972Z" fill="#1C1C1C"/>
            <path fill-rule="evenodd" clip-rule="evenodd" d="M27 31.2403L24.8223 28.0899C24.0264 26.9386 22.853 26.1017 21.5052 25.7242L20.1753 25.3516C19.7567 27.8323 17.5996 29.7223 15 29.7223C12.4003 29.7223 10.2433 27.8323 9.8247 25.3516L8.4948 25.7242C7.14697 26.1017 5.9736 26.9386 5.1777 28.0899L3 31.2403L3 33.4723H27V31.2403Z" fill="#A9D847"/>
        </g>
    </g>
    <rect x="0.5" y="1" width="29" height="29" rx="14.5" stroke="white"/>
    <defs>
        <clipPath id="clip0_4707_534">
            <rect y="0.5" width="30" height="30" rx="15" fill="white"/>
        </clipPath>
    </defs>
</svg>
