<svg width="12" height="14" viewBox="0 0 12 14" fill="none" xmlns="http://www.w3.org/2000/svg">
<path id="Vector" d="M0.5 8.375C0.5 7.17188 0.786458 6.10052 1.35938 5.16094C1.93229 4.22135 2.5625 3.43073 3.25 2.78906C3.9375 2.1474 4.56771 1.65744 5.14062 1.31919L6 0.8125V3.08125C6 3.50521 6.14323 3.84025 6.42969 4.08637C6.71615 4.3325 7.03698 4.45579 7.39219 4.45625C7.58698 4.45625 7.77329 4.41615 7.95113 4.33594C8.12896 4.25573 8.29213 4.12396 8.44063 3.94063L8.75 3.5625C9.575 4.04375 10.2396 4.71108 10.7437 5.5645C11.2479 6.41792 11.5 7.35475 11.5 8.375C11.5 9.38333 11.2536 10.303 10.7609 11.1339C10.2682 11.9649 9.62083 12.6205 8.81875 13.1009C9.01354 12.8259 9.16548 12.525 9.27456 12.1982C9.38365 11.8714 9.43796 11.5251 9.4375 11.1594C9.4375 10.701 9.35156 10.2684 9.17969 9.86138C9.00781 9.45438 8.76146 9.09069 8.44063 8.77031L6 6.38125L3.57656 8.77031C3.24427 9.1026 2.99219 9.46927 2.82031 9.87031C2.64844 10.2714 2.5625 10.701 2.5625 11.1594C2.5625 11.526 2.61704 11.8728 2.72613 12.1996C2.83521 12.5264 2.98692 12.827 3.18125 13.1016C2.37917 12.6203 1.73177 11.9642 1.23906 11.1332C0.746354 10.3023 0.5 9.38288 0.5 8.375ZM6 8.30625L7.46094 9.73281C7.65573 9.9276 7.80469 10.1453 7.90781 10.3859C8.01094 10.6266 8.0625 10.8844 8.0625 11.1594C8.0625 11.7208 7.86198 12.1991 7.46094 12.5942C7.0599 12.9893 6.57292 13.187 6 13.1875C5.42708 13.1875 4.9401 12.9897 4.53906 12.5942C4.13802 12.1986 3.9375 11.7204 3.9375 11.1594C3.9375 10.8958 3.98906 10.6408 4.09219 10.3942C4.19531 10.1476 4.34427 9.92715 4.53906 9.73281L6 8.30625Z" fill="white"/>
</svg>
