<svg width="12" height="12" viewBox="0 0 12 12" fill="none" xmlns="http://www.w3.org/2000/svg">
<path fill-rule="evenodd" clip-rule="evenodd" d="M4.96902 7.83337H4.10872C3.56462 7.83337 3.04864 8.07505 2.70032 8.49304L2.21129 9.07987C1.71374 9.67692 2.1383 10.5834 2.91549 10.5834H9.08458C9.86176 10.5834 10.2863 9.67692 9.78878 9.07987L9.29975 8.49304C8.95143 8.07505 8.43544 7.83337 7.89135 7.83337H7.03128V8.52087C7.03128 9.09042 6.56958 9.55212 6.00003 9.55212C5.43049 9.55212 4.96878 9.09042 4.96878 8.52087L4.96902 7.83337Z" fill="white"/>
<path d="M6.34375 8.52083C6.34375 8.71068 6.18985 8.86458 6 8.86458C5.81015 8.86458 5.65625 8.71068 5.65625 8.52083L5.65846 2.10417C5.65846 1.59791 6.06887 1.1875 6.57513 1.1875H9.04187C9.38258 1.1875 9.60418 1.54606 9.45181 1.85081L8.96928 2.81586C8.90477 2.94489 8.90477 3.09677 8.96928 3.22581L9.45181 4.19086C9.60418 4.49561 9.38258 4.85417 9.04187 4.85417H6.34375V8.52083Z" fill="white"/>
</svg>
