<svg width="18" height="20" viewBox="0 0 18 20" fill="none" xmlns="http://www.w3.org/2000/svg">
<path d="M16.7942 5.45213L9.82565 0.516875C9.33097 0.166527 8.66903 0.166527 8.17435 0.516875L1.20584 5.45213C0.449523 5.98777 0 6.85697 0 7.78375V17.075C0 18.6529 1.27919 19.9321 2.85714 19.9321H5C5.78898 19.9321 6.42857 19.2925 6.42857 18.5036V16.3607C6.42857 15.5717 7.06817 14.9321 7.85714 14.9321H10.1429C10.9318 14.9321 11.5714 15.5717 11.5714 16.3607V18.5036C11.5714 19.2925 12.211 19.9321 13 19.9321H15.1429C16.7208 19.9321 18 18.6529 18 17.075V7.78375C18 6.85698 17.5505 5.98777 16.7942 5.45213Z" fill="white"/>
</svg>
