<svg width="24" height="25" viewBox="0 0 24 25" fill="none" xmlns="http://www.w3.org/2000/svg">
<g id="Iconly/Bold/Notification">
<g id="Notification">
<path id="Notification_2" fill-rule="evenodd" clip-rule="evenodd" d="M18.7071 9.29633C18.7071 10.5523 19.039 11.2925 19.7695 12.1456C20.3231 12.7741 20.5 13.5808 20.5 14.456C20.5 15.3302 20.2128 16.1601 19.6373 16.8339C18.884 17.6417 17.8215 18.1573 16.7372 18.247C15.1659 18.3809 13.5937 18.4937 12.0005 18.4937C10.4063 18.4937 8.83505 18.4263 7.26375 18.247C6.17846 18.1573 5.11602 17.6417 4.36367 16.8339C3.78822 16.1601 3.5 15.3302 3.5 14.456C3.5 13.5808 3.6779 12.7741 4.23049 12.1456C4.98384 11.2925 5.29392 10.5523 5.29392 9.29633V8.8703C5.29392 7.18834 5.71333 6.08852 6.577 5.01186C7.86106 3.4417 9.91935 2.5 11.9558 2.5H12.0452C14.1254 2.5 16.2502 3.48702 17.5125 5.12466C18.3314 6.17916 18.7071 7.23265 18.7071 8.8703V9.29633ZM9.07367 20.5608C9.07367 20.0573 9.53582 19.8266 9.96318 19.7279C10.4631 19.6222 13.5093 19.6222 14.0092 19.7279C14.4366 19.8266 14.8987 20.0573 14.8987 20.5608C14.8738 21.0402 14.5926 21.4653 14.204 21.7352C13.7001 22.128 13.1088 22.3767 12.4906 22.4664C12.1487 22.5107 11.8128 22.5117 11.4828 22.4664C10.8636 22.3767 10.2723 22.128 9.76938 21.7342C9.37978 21.4653 9.09852 21.0402 9.07367 20.5608Z" fill="white"/>
</g>
</g>
</svg>
