<svg width="10" height="12" viewBox="0 0 10 12" fill="none" xmlns="http://www.w3.org/2000/svg">
<g id="Frame" clip-path="url(#clip0_4707_447)">
<g id="Group">
<path id="Vector" d="M5.56053 10.6689C5.56053 10.7788 5.56053 10.8612 5.56053 10.9436C5.55443 11.2548 5.3164 11.4898 5.0082 11.4929C4.69694 11.4929 4.45586 11.2609 4.44976 10.9497C4.44976 10.8673 4.44976 10.7849 4.44976 10.6872C4.33685 10.7361 4.25751 10.8154 4.16901 10.8764C3.98897 10.9985 3.79672 11.029 3.59532 10.9344C3.22608 10.7635 3.15284 10.26 3.4702 10.0067C3.75095 9.78093 4.05 9.57343 4.34295 9.36287C4.41924 9.30794 4.44976 9.24996 4.44976 9.15536C4.44671 8.47486 4.44671 7.79131 4.44671 7.11081C4.44671 7.07419 4.44671 7.03757 4.44671 6.97654C4.33685 7.03757 4.2453 7.08639 4.15681 7.14132C3.62583 7.44953 3.09791 7.75774 2.56694 8.0629C2.48455 8.10867 2.44488 8.16665 2.43877 8.2582C2.40826 8.56946 2.37164 8.87767 2.34112 9.18893C2.33197 9.27132 2.32281 9.35676 2.29535 9.4361C2.2038 9.69854 1.94442 9.84807 1.65757 9.79924C1.41039 9.75652 1.20899 9.5246 1.20899 9.26522C1.20899 9.12484 1.23035 8.98752 1.24256 8.82884C1.16932 8.87156 1.10829 8.90818 1.04726 8.94175C0.757358 9.10653 0.421685 9.02719 0.259952 8.75865C0.095167 8.48401 0.186714 8.16055 0.47051 7.97745C0.52849 7.94083 0.641398 7.92252 0.635295 7.85844C0.629192 7.7852 0.513232 7.79131 0.449149 7.75164C0.424737 7.73638 0.394221 7.72722 0.366757 7.71502C0.0615997 7.58075 -0.0665663 7.26033 0.0615997 6.96738C0.189766 6.67443 0.510181 6.55237 0.818389 6.68359C1.14796 6.82701 1.47448 6.97043 1.79794 7.11996C1.85897 7.14743 1.9078 7.14743 1.96883 7.11081C2.57304 6.75988 3.18031 6.40894 3.78757 6.06106C3.86081 6.01834 3.86081 5.98783 3.78757 5.94511C3.18336 5.59723 2.5822 5.24629 1.98104 4.89536C1.91085 4.85569 1.85287 4.8679 1.78879 4.89536C1.46227 5.04184 1.13575 5.18526 0.806183 5.32564C0.449149 5.47516 0.0799091 5.27071 0.00972299 4.89231C-0.0299474 4.6726 0.0982185 4.42542 0.311828 4.31557C0.403376 4.26979 0.497974 4.23012 0.592573 4.19045C0.647501 4.16604 0.662759 4.14468 0.601728 4.11111C0.546799 4.08059 0.48882 4.04703 0.433891 4.01041C0.168405 3.83647 0.0890638 3.50385 0.250797 3.24141C0.409479 2.98203 0.739048 2.89964 1.01064 3.04916C1.0259 3.05832 1.04421 3.07052 1.05946 3.07663C1.11134 3.09799 1.16627 3.17123 1.20899 3.14071C1.26087 3.10409 1.23035 3.0217 1.21815 2.96067C1.18153 2.73485 1.19678 2.52429 1.37378 2.35646C1.53246 2.20083 1.72776 2.16421 1.93526 2.23134C2.15193 2.29848 2.28009 2.45716 2.31061 2.67687C2.35943 3.0278 2.393 3.37873 2.42657 3.72966C2.43572 3.83037 2.46929 3.89445 2.56084 3.94632C3.13758 4.27284 3.70823 4.60546 4.28192 4.93809C4.33075 4.96555 4.37957 4.99301 4.4284 5.01743C4.45586 4.9747 4.44671 4.94114 4.44671 4.90757C4.44671 4.21792 4.44671 3.52826 4.44976 2.84166C4.44976 2.75621 4.42535 2.70128 4.35516 2.65246C4.07747 2.45716 3.80588 2.25575 3.53124 2.05435C3.25354 1.85295 3.18641 1.51727 3.37561 1.25484C3.56175 0.992402 3.90658 0.946629 4.18427 1.14498C4.26361 1.20296 4.34295 1.26094 4.44671 1.33418C4.44671 1.23348 4.44671 1.15719 4.44671 1.07785C4.45281 0.748277 4.68473 0.510254 5.0082 0.510254C5.32861 0.510254 5.56053 0.748277 5.56358 1.0809C5.56358 1.15719 5.56358 1.23043 5.56358 1.31892C5.67649 1.26704 5.75278 1.19075 5.83822 1.13277C6.21052 0.873391 6.67435 1.06869 6.73538 1.51727C6.76285 1.72478 6.68046 1.89872 6.51262 2.02689C6.23798 2.23134 5.96334 2.4358 5.68259 2.63415C5.59715 2.69518 5.56053 2.75926 5.56053 2.86912C5.56663 3.54962 5.56358 4.23317 5.56358 4.91367C5.56358 5.03574 5.56358 5.03574 5.66734 4.97776C6.26849 4.63293 6.8666 4.28505 7.46776 3.94327C7.5471 3.8975 7.57457 3.84257 7.58372 3.75408C7.61729 3.40315 7.65391 3.04916 7.69968 2.70128C7.7424 2.37477 8.01399 2.17336 8.34356 2.21303C8.63041 2.2466 8.83792 2.52429 8.8074 2.82945C8.8013 2.90269 8.79214 2.97287 8.78604 3.04611C8.78299 3.08273 8.76163 3.1285 8.79825 3.15292C8.83181 3.17428 8.86233 3.13766 8.88979 3.11935C9.01491 3.04611 9.14002 2.97898 9.29565 2.98508C9.52757 2.99423 9.73508 3.13766 9.80832 3.35432C9.88461 3.57708 9.81137 3.83342 9.62827 3.97074C9.56419 4.01956 9.49401 4.05618 9.42687 4.0989C9.40246 4.11416 9.36279 4.12026 9.36889 4.15993C9.37194 4.19045 9.40551 4.1935 9.42992 4.20571C9.50621 4.23928 9.5825 4.27284 9.65879 4.30946C9.9609 4.45594 10.0769 4.76109 9.94869 5.05405C9.82052 5.33784 9.51231 5.45685 9.21021 5.32869C8.88674 5.19137 8.56633 5.05099 8.24896 4.90452C8.16352 4.86485 8.09639 4.87095 8.01705 4.91672C7.42504 5.26155 6.82998 5.60333 6.23798 5.94511C6.14338 6.00003 6.14338 6.01529 6.23798 6.06717C6.83914 6.412 7.4403 6.75377 8.03841 7.10165C8.10859 7.14132 8.16352 7.13522 8.23065 7.1047C8.53581 6.96738 8.84402 6.83616 9.14918 6.69579C9.34753 6.6073 9.53978 6.59814 9.72898 6.71105C9.91512 6.82091 10.0097 6.99179 10.0036 7.2054C9.99751 7.43427 9.88461 7.60211 9.6771 7.70281C9.59471 7.74248 9.50926 7.77605 9.42687 7.81267C9.35058 7.84318 9.36279 7.8737 9.42382 7.90727C9.46959 7.93473 9.51537 7.95914 9.56114 7.98966C9.83273 8.1575 9.91817 8.48707 9.76254 8.7556C9.60691 9.02414 9.26819 9.10959 8.98744 8.95396C8.96303 8.94175 8.94167 8.92344 8.91726 8.91429C8.87759 8.89903 8.84097 8.84105 8.79825 8.87156C8.76163 8.89903 8.78604 8.95701 8.78909 9.00278C8.79214 9.08517 8.8074 9.17062 8.81045 9.25301C8.81045 9.54291 8.59379 9.78704 8.3222 9.80534C8.00179 9.82671 7.7424 9.6314 7.70578 9.32625C7.66001 8.97227 7.62339 8.61523 7.58982 8.26125C7.58067 8.17275 7.5471 8.11477 7.47081 8.07205C6.87271 7.73028 6.27765 7.38545 5.67954 7.04062C5.57274 6.97959 5.56968 6.97959 5.56968 7.0986C5.56968 7.79436 5.56968 8.49317 5.56968 9.18893C5.56968 9.26217 5.5941 9.30794 5.65208 9.35066C5.93587 9.55512 6.21967 9.75957 6.50041 9.96708C6.69877 10.1136 6.78421 10.3119 6.73233 10.556C6.68351 10.7818 6.50652 10.9466 6.26849 10.9863C6.10981 11.0138 5.96944 10.9619 5.83822 10.8703C5.74668 10.8002 5.66428 10.7422 5.56053 10.6689Z" fill="white"/>
<path id="Vector_2" d="M8.85261 5.96655C8.85566 6.08556 8.80683 6.14964 8.73054 6.18321C8.4498 6.30833 8.166 6.43039 7.88526 6.5555C7.83338 6.57992 7.79066 6.56771 7.74488 6.54025C7.46414 6.37851 7.18645 6.21678 6.9057 6.05505C6.82941 6.01232 6.83247 5.98181 6.9057 5.94214C7.18645 5.78346 7.46719 5.62172 7.74488 5.45694C7.79981 5.42337 7.84864 5.42642 7.90662 5.45083C8.17516 5.56985 8.44064 5.68581 8.70918 5.80482C8.79157 5.84449 8.84955 5.89942 8.85261 5.96655Z" fill="white"/>
<path id="Vector_3" d="M1.15656 6.00007C1.15656 5.90852 1.20843 5.85054 1.28472 5.81392C1.56241 5.68881 1.84011 5.5698 2.1178 5.44468C2.16663 5.42332 2.2124 5.42637 2.25817 5.45384C2.54197 5.61862 2.82271 5.78341 3.10651 5.94514C3.1767 5.98481 3.17364 6.01227 3.10651 6.05195C2.82271 6.21368 2.53892 6.37846 2.25817 6.54325C2.2063 6.57376 2.16052 6.57071 2.10865 6.5463C1.83706 6.42424 1.56547 6.30828 1.29388 6.18621C1.21148 6.15265 1.15656 6.09772 1.15656 6.00007Z" fill="white"/>
<path id="Vector_4" d="M4.09826 8.17274C4.09826 8.32837 4.09521 8.484 4.09826 8.63963C4.09826 8.70676 4.0769 8.75254 4.02197 8.79221C3.79006 8.96004 3.56119 9.12788 3.33232 9.29572C3.25298 9.3537 3.17364 9.39032 3.07904 9.33539C2.98749 9.28351 2.97529 9.20112 2.98749 9.10957C3.01801 8.80747 3.05157 8.50536 3.08209 8.20326C3.08819 8.15748 3.11566 8.13002 3.15533 8.10866C3.43912 7.94692 3.71987 7.78214 4.00367 7.61735C4.08606 7.56853 4.10132 7.60515 4.09826 7.68144C4.09826 7.84622 4.09826 8.00795 4.09826 8.17274Z" fill="white"/>
<path id="Vector_5" d="M5.9109 3.83339C5.9109 3.67776 5.91396 3.52213 5.9109 3.3665C5.9109 3.29936 5.92921 3.25359 5.98719 3.21392C6.21911 3.04608 6.44798 2.87825 6.67685 2.70736C6.75314 2.64938 6.83248 2.61276 6.93013 2.66464C7.02168 2.71346 7.03693 2.79891 7.02778 2.89045C6.99726 3.19256 6.9637 3.49466 6.93318 3.79677C6.92708 3.84865 6.89656 3.87611 6.85384 3.90052C6.5731 4.06226 6.2954 4.22399 6.01466 4.38572C5.94142 4.42845 5.91396 4.41319 5.91396 4.32774C5.91396 4.15991 5.9109 3.99512 5.9109 3.83339Z" fill="white"/>
<path id="Vector_6" d="M4.09827 3.83655C4.09827 4.00134 4.09522 4.16307 4.09827 4.32785C4.09827 4.40414 4.07386 4.42551 4.00367 4.38583C3.71987 4.22105 3.43913 4.05932 3.15228 3.89758C3.1004 3.86707 3.08209 3.82435 3.07599 3.76637C3.04853 3.50088 3.01801 3.23844 2.99055 2.97296C2.9875 2.93634 2.9875 2.89667 2.98444 2.86005C2.98139 2.77155 3.01191 2.70442 3.09125 2.6617C3.16754 2.62203 3.23772 2.64339 3.30486 2.68916C3.50626 2.83869 3.70462 2.99432 3.91517 3.13164C4.05555 3.22319 4.11963 3.32694 4.09827 3.49478C4.08606 3.60768 4.09827 3.72364 4.09827 3.83655Z" fill="white"/>
<path id="Vector_7" d="M5.9109 8.16052C5.9109 8.00184 5.91396 7.84011 5.9109 7.68143C5.9109 7.60209 5.92921 7.57462 6.00855 7.61734C6.2893 7.77908 6.57004 7.94081 6.85079 8.09949C6.90572 8.13001 6.92708 8.17578 6.93318 8.23986C6.96064 8.49925 6.99116 8.76168 7.01862 9.02107C7.02473 9.06989 7.02778 9.11872 7.02473 9.16754C7.01557 9.32622 6.86299 9.41472 6.73178 9.32317C6.46934 9.14008 6.21606 8.94783 5.95668 8.75863C5.91396 8.72812 5.91396 8.68234 5.91396 8.63657C5.9109 8.47789 5.9109 8.3192 5.9109 8.16052Z" fill="white"/>
</g>
</g>
<defs>
<clipPath id="clip0_4707_447">
<rect width="10" height="10.9796" fill="white" transform="translate(0 0.510254)"/>
</clipPath>
</defs>
</svg>
