<svg width="13" height="14" viewBox="0 0 13 14" fill="none" xmlns="http://www.w3.org/2000/svg">
<g id="Icontyl Plus/Light/Bold/Star">
<g id="Icon">
<path id="Star 1" d="M5.96245 1.983C6.13961 1.45 6.86041 1.45 7.03757 1.983L7.97565 4.80524C8.0538 5.04037 8.26363 5.1998 8.50161 5.20487L11.3582 5.26574C11.8976 5.27724 12.1204 5.99413 11.6904 6.33504L9.41361 8.14016C9.22393 8.29054 9.14378 8.5485 9.21271 8.78676L10.0401 11.6466C10.1963 12.1867 9.61318 12.6298 9.17028 12.3075L6.82507 10.6009C6.62969 10.4587 6.37033 10.4587 6.17495 10.6009L3.82974 12.3075C3.38684 12.6298 2.8037 12.1867 2.95995 11.6466L3.78731 8.78676C3.85624 8.5485 3.77609 8.29055 3.58641 8.14016L1.30964 6.33504C0.879659 5.99413 1.1024 5.27724 1.64187 5.26574L4.4984 5.20487C4.73639 5.1998 4.94622 5.04037 5.02437 4.80524L5.96245 1.983Z" fill="white"/>
</g>
</g>
</svg>
